<?xml version="1.0"?>
<svg xmlns="http://www.w3.org/2000/svg" xmlns:xlink="http://www.w3.org/1999/xlink" xmlns:svgjs="http://svgjs.com/svgjs" version="1.1" width="512" height="512" x="0" y="0" viewBox="0 0 192.689 192.689" style="enable-background:new 0 0 512 512" xml:space="preserve" class=""><g>
<g xmlns="http://www.w3.org/2000/svg">
	<g id="Double_Chevron_Right">
		<path d="M188.527,87.755l-83.009-84.2c-4.692-4.74-12.319-4.74-17.011,0c-4.704,4.74-4.704,12.439,0,17.179l74.54,75.61    l-74.54,75.61c-4.704,4.74-4.704,12.439,0,17.179c4.704,4.74,12.319,4.74,17.011,0l82.997-84.2    C193.05,100.375,193.062,92.327,188.527,87.755z" fill="#ffffff" data-original="#000000" style="" class=""/>
		<path d="M104.315,87.755l-82.997-84.2c-4.704-4.74-12.319-4.74-17.011,0c-4.704,4.74-4.704,12.439,0,17.179l74.528,75.61    l-74.54,75.61c-4.704,4.74-4.704,12.439,0,17.179s12.319,4.74,17.011,0l82.997-84.2C108.838,100.375,108.85,92.327,104.315,87.755    z" fill="#ffffff" data-original="#000000" style="" class=""/>
	</g>
	<g>
	</g>
	<g>
	</g>
	<g>
	</g>
	<g>
	</g>
	<g>
	</g>
	<g>
	</g>
</g>
<g xmlns="http://www.w3.org/2000/svg">
</g>
<g xmlns="http://www.w3.org/2000/svg">
</g>
<g xmlns="http://www.w3.org/2000/svg">
</g>
<g xmlns="http://www.w3.org/2000/svg">
</g>
<g xmlns="http://www.w3.org/2000/svg">
</g>
<g xmlns="http://www.w3.org/2000/svg">
</g>
<g xmlns="http://www.w3.org/2000/svg">
</g>
<g xmlns="http://www.w3.org/2000/svg">
</g>
<g xmlns="http://www.w3.org/2000/svg">
</g>
<g xmlns="http://www.w3.org/2000/svg">
</g>
<g xmlns="http://www.w3.org/2000/svg">
</g>
<g xmlns="http://www.w3.org/2000/svg">
</g>
<g xmlns="http://www.w3.org/2000/svg">
</g>
<g xmlns="http://www.w3.org/2000/svg">
</g>
<g xmlns="http://www.w3.org/2000/svg">
</g>
</g></svg>
